nColumns=19
nRows=63
DataType=double
version=3
OpenSimVersion=4.1
endheader
time	ground_force_calcn_r_vx	ground_force_calcn_r_vy	ground_force_calcn_r_vz	ground_force_calcn_r_px	ground_force_calcn_r_py	ground_force_calcn_r_pz	ground_force_calcn_r_mx	ground_force_calcn_r_my	ground_force_calcn_r_mz	ground_force_calcn_l_vx	ground_force_calcn_l_vy	ground_force_calcn_l_vz	ground_force_calcn_l_px	ground_force_calcn_l_py	ground_force_calcn_l_pz	ground_force_calcn_l_mx	ground_force_calcn_l_my	ground_force_calcn_l_mz
9.6	0.14554	431.604	-24.9726	-0.265671	0	-0.408908	-0.000989501	-2.93441	0.169785	1.70405	91.6722	20.0158	-0.215777	0	-0.784164	0.00616084	0.331433	0.0723655
9.61	0.866152	430.861	-25.1111	-0.267263	0	-0.409314	-0.0057334	-2.85204	0.16622	1.95759	91.324	20.0267	-0.21648	0	-0.784116	0.00638811	0.298014	0.0653522
9.62	1.5262	430.719	-25.3067	-0.268834	0	-0.409723	-0.00980159	-2.76617	0.162525	2.20122	91.3599	20.1152	-0.217244	0	-0.784067	0.00634864	0.263496	0.0580152
9.63	2.10679	431.26	-25.5596	-0.270367	0	-0.410135	-0.0130818	-2.67784	0.158709	2.41578	91.7812	20.2799	-0.218037	0	-0.784025	0.00601889	0.228672	0.0505273
9.64	2.59529	432.552	-25.8666	-0.271854	0	-0.410548	-0.015528	-2.58802	0.154764	2.58113	92.5794	20.5201	-0.21883	0	-0.783999	0.00541634	0.194272	0.0430601
9.65	2.98435	434.646	-26.2205	-0.27328	0	-0.410959	-0.017149	-2.4976	0.150671	2.67921	93.7376	20.8338	-0.219596	0	-0.783999	0.00460585	0.161145	0.0358155
9.66	3.27089	437.566	-26.61	-0.27464	0	-0.41137	-0.017995	-2.4073	0.146397	2.69627	95.2298	21.2162	-0.220314	0	-0.784036	0.00369014	0.130332	0.0290368
9.67	3.45728	441.289	-27.0209	-0.275933	0	-0.41178	-0.018157	-2.31756	0.141908	2.62415	97.0205	21.6591	-0.22097	0	-0.784118	0.00278295	0.102892	0.0229699
9.68	3.55367	445.725	-27.4365	-0.277155	0	-0.412188	-0.0177678	-2.22855	0.137178	2.46125	99.0663	22.1508	-0.221558	0	-0.784248	0.00198455	0.0798791	0.0178606
9.69	3.57949	450.715	-27.8379	-0.278312	0	-0.412594	-0.0169975	-2.14026	0.132191	2.21281	101.319	22.6775	-0.222078	0	-0.784427	0.00136138	0.0623345	0.0139518
9.7	3.56331	456.037	-28.2054	-0.279408	0	-0.412998	-0.0160386	-2.05264	0.126953	1.8906	103.732	23.224	-0.222535	0	-0.784653	0.000934071	0.0512501	0.0114741
9.71	3.53924	461.434	-28.5211	-0.280453	0	-0.413399	-0.0150782	-1.96584	0.121508	1.5122	106.266	23.776	-0.222945	0	-0.784921	0.000677217	0.04759	0.0106478
9.72	3.53953	466.635	-28.7722	-0.281455	0	-0.413792	-0.0142624	-1.88029	0.115937	1.09905	108.899	24.323	-0.223329	0	-0.785225	0.000526492	0.0521672	0.0116518
9.73	3.59025	471.38	-28.9507	-0.282419	0	-0.414175	-0.0136845	-1.7967	0.110348	0.674649	111.628	24.8619	-0.223713	0	-0.785563	0.000395693	0.0654719	0.014582
9.74	3.71127	475.426	-29.0534	-0.283351	0	-0.414542	-0.0133959	-1.71605	0.104869	0.262872	114.472	25.3976	-0.224127	0	-0.78593	0.000201258	0.0876414	0.0194448
9.75	3.91787	478.569	-29.0802	-0.284258	0	-0.414892	-0.0134229	-1.63961	0.0996307	-0.113325	117.461	25.9422	-0.224596	0	-0.786329	-0.000114225	0.118394	0.0261481
9.76	4.22202	480.663	-29.0321	-0.285143	0	-0.415224	-0.0137786	-1.56865	0.0947467	-0.43356	120.636	26.513	-0.225141	0	-0.786756	-0.00056439	0.157039	0.0345135
9.77	4.63268	481.634	-28.9115	-0.286006	0	-0.415536	-0.0144699	-1.50436	0.0903036	-0.681752	124.036	27.1299	-0.225775	0	-0.787213	-0.00111305	0.202505	0.044293
9.78	5.15532	481.488	-28.7223	-0.286849	0	-0.415828	-0.0155004	-1.44768	0.086359	-0.847155	127.697	27.8116	-0.226501	0	-0.787699	-0.00168097	0.253383	0.0551854
9.79	5.79156	480.308	-28.4724	-0.287666	0	-0.4161	-0.0168714	-1.39919	0.0829431	-0.925787	131.636	28.573	-0.227314	0	-0.788209	-0.0021673	0.308165	0.0668903
9.8	6.53918	478.253	-28.175	-0.288455	0	-0.416354	-0.018582	-1.35903	0.0800634	-0.920634	135.852	29.4225	-0.228199	0	-0.78874	-0.00247519	0.365248	0.0791044
9.81	7.39198	475.543	-27.8498	-0.289206	0	-0.416587	-0.0206248	-1.32684	0.0777055	-0.840129	140.314	30.3602	-0.229131	0	-0.789284	-0.00253243	0.422953	0.0915159
9.82	8.33746	472.446	-27.5237	-0.289905	0	-0.416796	-0.0229742	-1.30184	0.0758428	-0.696377	144.958	31.3761	-0.230083	0	-0.789834	-0.0023044	0.479683	0.103827
9.83	9.3523	469.259	-27.2273	-0.290537	0	-0.416979	-0.0255704	-1.28301	0.074443	-0.504448	149.686	32.4486	-0.231025	0	-0.790378	-0.00179992	0.534094	0.11578
9.84	10.3966	466.28	-26.9889	-0.291081	0	-0.417132	-0.0282989	-1.26918	0.0734618	-0.280765	154.375	33.5451	-0.231925	0	-0.790907	-0.00106397	0.58501	0.12712
9.85	11.4123	463.781	-26.8281	-0.291516	0	-0.417253	-0.0309801	-1.25899	0.0728284	-0.0414401	158.884	34.6221	-0.232753	0	-0.791407	-0.000164693	0.631444	0.137597
9.86	12.3271	461.984	-26.7508	-0.291816	0	-0.417337	-0.033381	-1.25103	0.0724397	0.198258	163.068	35.6297	-0.233489	0	-0.791867	0.000817963	0.672777	0.146999
9.87	13.0643	461.037	-26.7478	-0.291964	0	-0.417386	-0.0352456	-1.24382	0.0721618	0.42321	166.795	36.5159	-0.234116	0	-0.792273	0.00179862	0.708868	0.155191
9.88	13.5543	461.011	-26.7965	-0.291948	0	-0.417404	-0.0363384	-1.23595	0.0718401	0.618155	169.955	37.2308	-0.234625	0	-0.792616	0.0026914	0.73997	0.1621
9.89	13.7443	461.897	-26.8661	-0.291768	0	-0.417398	-0.0364842	-1.22611	0.0713164	0.768786	172.467	37.731	-0.235013	0	-0.792885	0.00341741	0.766648	0.167722
9.9	13.6063	463.626	-26.9252	-0.291429	0	-0.417373	-0.0356102	-1.2134	0.0704684	0.862976	174.279	37.9836	-0.235279	0	-0.793076	0.0039101	0.789649	0.172102
9.91	13.1451	466.082	-26.9499	-0.290951	0	-0.417337	-0.0337743	-1.19752	0.0692435	0.892257	175.37	37.9696	-0.235423	0	-0.793189	0.00411998	0.809764	0.175324
9.92	12.4007	469.123	-26.9297	-0.290364	0	-0.417293	-0.0311595	-1.17877	0.0676668	0.853266	175.745	37.6864	-0.235447	0	-0.793222	0.00401986	0.827962	0.177546
9.93	11.444	472.598	-26.8686	-0.289704	0	-0.417247	-0.0280406	-1.15798	0.065835	0.748202	175.436	37.1484	-0.235357	0	-0.793181	0.00360505	0.845301	0.178992
9.94	10.3675	476.353	-26.7825	-0.289012	0	-0.417199	-0.0247311	-1.13632	0.0638881	0.584406	174.493	36.3851	-0.235157	0	-0.793075	0.00288965	0.862794	0.179909
9.95	9.27154	480.243	-26.6929	-0.28833	0	-0.417151	-0.0215276	-1.11508	0.0619784	0.372703	172.983	35.4378	-0.234855	0	-0.792912	0.00189854	0.881171	0.180519
9.96	8.2493	484.125	-26.6222	-0.287697	0	-0.417104	-0.0186644	-1.09536	0.0602342	0.125508	170.993	34.3564	-0.234461	0	-0.79271	0.000661239	0.900876	0.181006
9.97	7.37564	487.863	-26.5869	-0.287146	0	-0.417058	-0.0162947	-1.07781	0.0587374	-0.144891	168.627	33.1962	-0.233987	0	-0.792483	-0.000792269	0.922062	0.181518
9.98	6.70214	491.339	-26.593	-0.286701	0	-0.417019	-0.0144955	-1.06268	0.0575159	-0.427225	166.004	32.0144	-0.233453	0	-0.792247	-0.00243117	0.944666	0.182182
9.99	6.25805	494.469	-26.6343	-0.286377	0	-0.416988	-0.0132873	-1.04988	0.056551	-0.711449	163.251	30.866	-0.232878	0	-0.792017	-0.00422054	0.968457	0.183106
10	6.05331	497.203	-26.6955	-0.286183	0	-0.416968	-0.0126512	-1.03913	0.0557926	-0.988972	160.493	29.7986	-0.232288	0	-0.791808	-0.00611971	0.993125	0.184393
10.01	6.0803	499.516	-26.7561	-0.286117	0	-0.416966	-0.012538	-1.03004	0.0551731	-1.25326	157.846	28.8495	-0.231708	0	-0.791633	-0.00808479	1.01826	0.186109
10.02	6.31649	501.407	-26.7954	-0.286178	0	-0.416985	-0.0128751	-1.02203	0.0546177	-1.50012	155.403	28.0424	-0.231163	0	-0.791496	-0.0100725	1.04345	0.188291
10.03	6.72917	502.89	-26.7981	-0.28635	0	-0.417026	-0.0135724	-1.01431	0.0540505	-1.72733	153.237	27.3867	-0.230672	0	-0.791399	-0.0120432	1.06839	0.190945
10.04	7.28066	503.988	-26.7561	-0.286622	0	-0.41709	-0.0145311	-1.00589	0.0534012	-1.93397	151.388	26.879	-0.230251	0	-0.791344	-0.0139634	1.09303	0.194068
10.05	7.93196	504.74	-26.668	-0.286974	0	-0.417176	-0.0156474	-0.995705	0.0526082	-2.11958	149.874	26.5052	-0.229909	0	-0.791325	-0.0158042	1.1175	0.19763
10.06	8.64498	505.195	-26.5385	-0.287387	0	-0.417277	-0.0168154	-0.98266	0.0516203	-2.28413	148.684	26.2434	-0.229644	0	-0.791334	-0.0175437	1.14199	0.201567
10.07	9.38458	505.413	-26.3776	-0.287837	0	-0.417388	-0.0179334	-0.965816	0.050406	-2.42752	147.787	26.0672	-0.229453	0	-0.791366	-0.019165	1.16676	0.205797
10.08	10.1193	505.463	-26.1985	-0.288299	0	-0.417501	-0.0189107	-0.944596	0.0489591	-2.54892	147.138	25.9488	-0.229326	0	-0.791411	-0.0206485	1.19195	0.210208
10.09	10.8216	505.415	-26.0154	-0.288748	0	-0.417608	-0.0196721	-0.918767	0.047292	-2.64662	146.681	25.8624	-0.229248	0	-0.791463	-0.021968	1.2175	0.214668
10.1	11.4689	505.335	-25.8412	-0.289159	0	-0.417698	-0.020161	-0.888322	0.0454259	-2.71838	146.355	25.7863	-0.229208	0	-0.791514	-0.023091	1.24319	0.219039
10.11	12.0437	505.278	-25.6866	-0.289509	0	-0.417763	-0.0203424	-0.853438	0.0433859	-2.76232	146.104	25.7047	-0.229194	0	-0.791559	-0.0239838	1.26854	0.22318
10.12	12.5339	505.28	-25.5591	-0.289775	0	-0.417797	-0.0202034	-0.814466	0.041199	-2.77732	145.878	25.608	-0.229194	0	-0.791598	-0.024616	1.29295	0.226969
10.13	12.9318	505.365	-25.4631	-0.289941	0	-0.417795	-0.0197515	-0.771874	0.0388914	-2.76327	145.637	25.4931	-0.229194	0	-0.791633	-0.024963	1.31567	0.230301
10.14	13.2331	505.541	-25.4009	-0.289991	0	-0.417749	-0.0190106	-0.726258	0.0364908	-2.72161	145.356	25.3621	-0.229184	0	-0.791667	-0.0250116	1.33583	0.233078
10.15	13.4356	505.804	-25.373	-0.289913	0	-0.41766	-0.0180188	-0.678348	0.0340284	-2.65526	145.026	25.2213	-0.22915	0	-0.791705	-0.0247654	1.35264	0.235237
10.16	13.5378	506.135	-25.3785	-0.289694	0	-0.417524	-0.0168231	-0.628961	0.0315372	-2.56867	144.653	25.0802	-0.229084	0	-0.791754	-0.0242485	1.36554	0.236759
10.17	13.5387	506.506	-25.4147	-0.289325	0	-0.417339	-0.015477	-0.579021	0.0290532	-2.46796	144.263	24.951	-0.228979	0	-0.791816	-0.0235092	1.37422	0.237678
10.18	13.4374	506.879	-25.4765	-0.288798	0	-0.417107	-0.01404	-0.529608	0.0266189	-2.36077	143.896	24.8473	-0.228829	0	-0.791895	-0.0226181	1.37864	0.238057
10.19	13.234	507.213	-25.5565	-0.288108	0	-0.416826	-0.0125743	-0.481928	0.0242825	-2.25566	143.599	24.782	-0.228633	0	-0.791995	-0.0216608	1.37896	0.237979
10.2	12.9299	507.469	-25.6455	-0.287252	0	-0.4165	-0.0111455	-0.437437	0.0221063	-2.16109	143.422	24.7664	-0.228393	0	-0.792116	-0.0207286	1.37566	0.237553
10.21	12.5284	507.614	-25.7338	-0.286229	0	-0.416129	-0.00981812	-0.3978	0.0201667	-2.0849	143.41	24.8084	-0.228113	0	-0.792256	-0.0199103	1.36953	0.236914
10.22	12.0364	507.619	-25.8117	-0.285043	0	-0.415718	-0.0086513	-0.364857	0.0185524	-2.03365	143.603	24.9121	-0.227802	0	-0.79241	-0.0192808	1.36148	0.236189
